HIERARCHY
ROOT Hips
{
	OFFSET 0.00000 0.00000 0.00000
	CHANNELS 6 Xposition Yposition Zposition Zrotation Yrotation Xrotation 
	JOINT LHipJoint
	{
		OFFSET 0 0 0
		CHANNELS 3 Zrotation Yrotation Xrotation
		JOINT LeftHip
		{
			OFFSET 1.34019 -1.87553 0.90315
			CHANNELS 3 Zrotation Yrotation Xrotation
			JOINT LeftKnee
			{
				OFFSET 2.55316 -7.01474 0.00000
				CHANNELS 3 Zrotation Yrotation Xrotation
				JOINT LeftAnkle
				{
					OFFSET 2.64657 -7.27139 0.00000
					CHANNELS 3 Zrotation Yrotation Xrotation
					JOINT LeftToe
					{
						OFFSET 0.24207 -0.66507 2.14489
						CHANNELS 3 Zrotation Yrotation Xrotation
						End Site
						{
							OFFSET 0.00000 -0.00000 1.12451
						}
					}
				}
			}
		}
	}
	JOINT RHipJoint
	{
		OFFSET 0 0 0
		CHANNELS 3 Zrotation Yrotation Xrotation
		JOINT RightHip
		{
			OFFSET -1.28320 -1.87553 0.90315
			CHANNELS 3 Zrotation Yrotation Xrotation
			JOINT RightKnee
			{
				OFFSET -2.60484 -7.15674 0.00000
				CHANNELS 3 Zrotation Yrotation Xrotation
				JOINT RightAnkle
				{
					OFFSET -2.60296 -7.15159 0.00000
					CHANNELS 3 Zrotation Yrotation Xrotation
					JOINT RightToe
					{
						OFFSET -0.31082 -0.85398 2.28998
						CHANNELS 3 Zrotation Yrotation Xrotation
						End Site
						{
							OFFSET -0.00000 -0.00000 1.21611
						}
					}
				}
			}
		}
	}
	JOINT lowerback
	{
		OFFSET 0 0 0
		CHANNELS 3 Zrotation Yrotation Xrotation
		JOINT Chest
		{
			OFFSET -0.00160 2.05581 -0.15156
			CHANNELS 3 Zrotation Yrotation Xrotation
			JOINT Chest2
			{
				OFFSET 0.04594 2.06326 -0.01617
				CHANNELS 3 Zrotation Yrotation Xrotation
				JOINT lowerneck
				{
					OFFSET 0 0 0
					CHANNELS 3 Zrotation Yrotation Xrotation
					JOINT Neck
					{
						OFFSET 0.03753 1.73883 0.26751
						CHANNELS 3 Zrotation Yrotation Xrotation
						JOINT Head
						{
							OFFSET -0.09795 1.76129 -0.31794
							CHANNELS 3 Zrotation Yrotation Xrotation
							End Site
							{
								OFFSET -0.03611 1.79987 -0.13846
							}
						}
					}
				}
				JOINT LeftCollar
				{
					OFFSET 0 0 0
					CHANNELS 3 Zrotation Yrotation Xrotation
					JOINT LeftShoulder
					{
						OFFSET 3.30667 1.29205 -0.22445
CHANNELS 3 Zrotation Xrotation Yrotation
						JOINT LeftElbow
						{
OFFSET 0 -4.927850 -0.000000
CHANNELS 3 Zrotation Xrotation Yrotation
							JOINT LeftWrist
							{
OFFSET 0 -3.440520 0.000000
CHANNELS 3 Zrotation Xrotation Yrotation
								JOINT lhand
								{
									OFFSET 0 0 0
CHANNELS 3 Zrotation Xrotation Yrotation
									JOINT LFingers
									{
OFFSET 0 -0.654330 0.000000
CHANNELS 3 Zrotation Xrotation Yrotation
										End Site
										{
OFFSET 0 -0.527530 0.000000
										}
									}
								}
								JOINT LThumb
								{
OFFSET 0 0.000000 0.000000
CHANNELS 3 Zrotation Xrotation Yrotation
									End Site
									{
OFFSET 0 -0.535590 0.535590
									}
								}
							}
						}
					}
				}
				JOINT RightCollar
				{
					OFFSET 0 0 0
					CHANNELS 3 Zrotation Yrotation Xrotation
					JOINT RightShoulder
					{
						OFFSET -3.20032 1.49783 -0.27688
CHANNELS 3 Zrotation Xrotation Yrotation
						JOINT RightElbow
						{
OFFSET 0 -5.091810 -0.000000
CHANNELS 3 Zrotation Xrotation Yrotation
							JOINT RightWrist
							{
OFFSET 0 -3.498650 -0.000000
CHANNELS 3 Zrotation Xrotation Yrotation
								JOINT rhand
								{
									OFFSET 0 0 0
CHANNELS 3 Zrotation Xrotation Yrotation
									JOINT RFingers
									{
OFFSET 0 -0.666410 0.000000
CHANNELS 3 Zrotation Xrotation Yrotation
										End Site
										{
OFFSET 0 -0.537280 0.000000
										}
									}
								}
								JOINT RThumb
								{
OFFSET 0 0.000000 0.000000
CHANNELS 3 Zrotation Xrotation Yrotation
									End Site
									{
OFFSET 0 -0.545480 0.545480
									}
								}
							}
						}
					}
				}
			}
		}
	}
}
MOTION
Frames: 4
Frame Time: 0.008333333333333333
0.835400 17.834700 -31.218000 -2.477200 2.506500 1.654400 0.000000 0.000000 0.000000 -14.029200 -5.900400 -6.382000 2.219500 9.309100 26.767000 0.152900 10.990100 -17.715200 0.193200 -2.830600 -7.807500 0.000000 0.000000 0.000000 22.634600 0.229400 -10.599100 -2.850100 -10.448400 30.441400 -0.163700 -13.859400 -21.464700 -0.020100 0.914400 -2.513300 -2.956100 -0.494600 4.795800 4.353500 -0.677900 -1.403300 6.272300 -0.204200 -4.066500 7.065800 1.464600 -21.387500 -9.400700 2.402700 25.682600 -4.386100 0.521000 12.232300 -0.000000 -0.000000 0.000000 0.299500 4.030900 -25.966900 14.955100 -24.083500 3.207600 12.716200 -7.941300 0.727900 0.000000 0.000000 0.000000 -7.125000 0.000000 0.000000 -10.789500 29.155000 -4.234500 -0.000000 -0.000000 0.000000 -6.368000 3.371300 9.669600 -13.044900 -21.353000 -2.469600 -17.033800 -2.274000 5.467100 0.000000 0.000000 0.000000 7.125000 0.000000 -0.000000 8.061400 35.599700 1.877300
0.833809 17.834523 -31.214994 -2.493229 2.503553 1.665538 0.000000 0.000000 0.000000 -13.997789 -5.877947 -6.394435 2.220148 9.310338 26.770948 0.157438 10.955507 -17.729520 0.195027 -2.843742 -7.843979 0.000000 0.000000 0.000000 22.662357 0.261046 -10.585605 -2.851455 -10.450698 30.448884 -0.167413 -13.860048 -21.503477 -0.019511 0.901730 -2.478413 -2.915260 -0.531609 4.774467 4.330811 -0.725104 -1.426578 6.228219 -0.228480 -4.073100 7.174470 1.617468 -21.121365 -9.333106 2.552563 25.249099 -4.332708 0.613051 12.026098 0.000000 0.000000 0.000000 0.336214 4.092955 -25.864713 14.858983 -23.949136 3.168528 12.851507 -7.675931 0.820717 0.000000 0.000000 0.000000 -7.125000 0.000000 0.000000 -10.675526 29.062595 -4.212047 0.000000 0.000000 0.000000 -6.290387 3.401827 9.683095 -13.022977 -21.320823 -2.461644 -17.038456 -2.241941 5.451130 0.000000 0.000000 0.000000 7.125000 0.000000 0.000000 8.055448 35.583435 1.879127
0.832432 17.834418 -31.212578 -2.514100 2.481993 1.683732 0.000000 0.000000 0.000000 -13.963181 -5.851904 -6.412621 2.220493 9.311004 26.773075 0.161082 10.931400 -17.745431 0.195925 -2.850149 -7.861790 0.000000 0.000000 0.000000 22.693240 0.301320 -10.583774 -2.852614 -10.452639 30.455225 -0.170107 -13.856999 -21.526945 -0.019171 0.894508 -2.458512 -2.865632 -0.561669 4.749114 4.307658 -0.762484 -1.447945 6.177726 -0.248222 -4.076843 7.252308 1.753367 -20.912285 -9.248077 2.686224 24.906272 -4.274707 0.695938 11.864465 0.000000 0.000000 0.000000 0.374340 4.145096 -25.766562 14.781764 -23.841156 3.137174 12.912807 -7.452773 0.814073 0.000000 0.000000 0.000000 -7.125000 0.000000 0.000000 -10.629004 29.069777 -4.191166 0.000000 0.000000 0.000000 -6.214203 3.435426 9.716079 -13.008915 -21.300204 -2.456547 -17.050649 -2.209132 5.460078 0.000000 0.000000 0.000000 7.125000 0.000000 0.000000 8.046495 35.593321 1.875077
0.831548 17.834477 -31.211518 -2.546099 2.417640 1.718148 0.000000 0.000000 0.000000 -13.921222 -5.817606 -6.444032 2.220139 9.310355 26.771012 0.162673 10.931400 -17.764996 0.194687 -2.841074 -7.836685 0.000000 0.000000 0.000000 22.731309 0.361431 -10.608761 -2.853322 -10.453759 30.458938 -0.170461 -13.845448 -21.515218 -0.019407 0.899812 -2.473068 -2.795798 -0.575754 4.714522 4.283437 -0.777275 -1.464917 6.112488 -0.257534 -4.074014 7.259262 1.850250 -20.834377 -9.122965 2.782636 24.771908 -4.206111 0.757758 11.805298 0.000000 0.000000 0.000000 0.415710 4.174444 -25.677694 14.747997 -23.793834 3.123560 12.803960 -7.326659 0.578759 0.000000 0.000000 0.000000 -7.125000 0.000000 0.000000 -10.737556 29.305916 -4.173899 0.000000 0.000000 0.000000 -6.141305 3.476088 9.793869 -13.012922 -21.306156 -2.458020 -17.080174 -2.174598 5.526317 0.000000 0.000000 0.000000 7.125000 0.000000 0.000000 8.030642 35.663332 1.857515
